<?xml version="1.0" encoding="utf-8"?>
<!-- Generator: Adobe Illustrator 16.0.0, SVG Export Plug-In . SVG Version: 6.00 Build 0)  -->
<!DOCTYPE svg PUBLIC "-//W3C//DTD SVG 1.1//EN" "http://www.w3.org/Graphics/SVG/1.1/DTD/svg11.dtd">
<svg version="1.1" id="Capa_1" xmlns="http://www.w3.org/2000/svg" xmlns:xlink="http://www.w3.org/1999/xlink" x="0px" y="0px"
	 width="301.644px" height="301.645px" viewBox="0 0 301.644 301.645" enable-background="new 0 0 301.644 301.645"
	 xml:space="preserve">
<g>
	<g>
		<path fill="#247B8F" d="M150.825,301.644C67.657,301.644,0,233.986,0,150.824C0,67.66,67.657,0,150.825,0
			c83.162,0,150.817,67.66,150.817,150.824C301.644,233.986,233.987,301.644,150.825,301.644z M150.825,16.203
			C76.589,16.203,16.2,76.594,16.2,150.824c0,74.226,60.388,134.619,134.625,134.619c74.225,0,134.613-60.395,134.613-134.619
			C285.438,76.594,225.05,16.203,150.825,16.203z"/>
	</g>
	<g>
		<path fill="#247B8F" d="M127.171,151.534v87.417c0,1.252,1.02,2.277,2.277,2.277h32.461c1.258,0,2.276-1.025,2.276-2.277v-88.842
			h23.528c1.188,0,2.17-0.904,2.271-2.083l2.262-26.768c0.113-1.327-0.934-2.469-2.266-2.469h-25.797V99.8
			c0-4.451,3.605-8.06,8.057-8.06h18.139c1.259,0,2.277-1.017,2.277-2.275V62.698c0-1.258-1.02-2.277-2.277-2.277h-30.646
			c-17.988,0-32.564,14.579-32.564,32.563v25.807h-16.233c-1.257,0-2.277,1.021-2.277,2.277v26.768c0,1.258,1.02,2.274,2.277,2.274
			h16.233V151.534z"/>
	</g>
</g>
</svg>
