<?xml version="1.0" encoding="utf-8"?>
<!-- Generator: Adobe Illustrator 16.0.0, SVG Export Plug-In . SVG Version: 6.00 Build 0)  -->
<!DOCTYPE svg PUBLIC "-//W3C//DTD SVG 1.1//EN" "http://www.w3.org/Graphics/SVG/1.1/DTD/svg11.dtd">
<svg version="1.1" id="Capa_1" xmlns="http://www.w3.org/2000/svg" xmlns:xlink="http://www.w3.org/1999/xlink" x="0px" y="0px"
	 width="301.644px" height="301.645px" viewBox="0 0 301.644 301.645" enable-background="new 0 0 301.644 301.645"
	 xml:space="preserve">
<g>
	<path fill="#247B8F" d="M150.824,301.641C67.661,301.641,0,233.984,0,150.827C0,67.663,67.661,0.003,150.824,0.003
		c83.158,0,150.818,67.66,150.818,150.824C301.644,233.984,233.982,301.641,150.824,301.641z M150.824,16.332
		c-75.265,0-134.495,59.229-134.495,134.495c0,75.26,59.229,134.489,134.495,134.489c75.259,0,134.495-59.229,134.495-134.489
		C285.319,75.562,226.083,16.332,150.824,16.332z M201.679,89.633c-6.165,0-11.163,4.995-11.163,11.16s4.998,11.163,11.163,11.163
		c6.16,0,11.156-4.998,11.156-11.163S207.839,89.633,201.679,89.633z M152.063,103.943c-25.851,0-46.883,21.027-46.883,46.884
		c0,25.845,21.032,46.878,46.883,46.878c25.847,0,46.879-21.033,46.879-46.878C198.941,124.971,177.908,103.943,152.063,103.943z
		 M152.063,180.854c-16.562,0-30.033-13.472-30.033-30.027c0-16.563,13.472-30.033,30.033-30.033
		c16.558,0,30.028,13.472,30.028,30.033C182.091,167.385,168.619,180.854,152.063,180.854z M246.655,111.858
		c0-31.576-25.601-57.178-57.183-57.178h-75.466c-31.582,0-57.188,25.602-57.188,57.178v75.481
		c0,31.576,25.606,57.178,57.188,57.178h75.466c31.582,0,57.183-25.602,57.183-57.178V111.858z M228.751,187.341
		c0,21.686-17.588,39.269-39.278,39.269h-75.466c-21.696,0-39.273-17.583-39.273-39.269v-75.481c0-21.686,17.578-39.27,39.273-39.27
		h75.466c21.69,0,39.278,17.584,39.278,39.27V187.341L228.751,187.341z"/>
</g>
</svg>
