<?xml version="1.0" encoding="utf-8"?>
<!-- Generator: Adobe Illustrator 16.0.0, SVG Export Plug-In . SVG Version: 6.00 Build 0)  -->
<!DOCTYPE svg PUBLIC "-//W3C//DTD SVG 1.1//EN" "http://www.w3.org/Graphics/SVG/1.1/DTD/svg11.dtd">
<svg version="1.1" id="Capa_1" xmlns="http://www.w3.org/2000/svg" xmlns:xlink="http://www.w3.org/1999/xlink" x="0px" y="0px"
	 width="301.644px" height="301.645px" viewBox="0 0 301.644 301.645" enable-background="new 0 0 301.644 301.645"
	 xml:space="preserve">
<g>
	<g>
		<g>
			<path fill="#247B8F" d="M150.824,301.639C67.658,301.639,0,233.982,0,150.821S67.658,0.004,150.824,0.004
				c83.161,0,150.818,67.655,150.818,150.816S233.985,301.639,150.824,301.639z M150.824,16.232
				c-74.214,0-134.596,60.376-134.596,134.588c0,74.214,60.382,134.591,134.596,134.591c74.21,0,134.585-60.377,134.585-134.591
				C285.41,76.608,225.035,16.232,150.824,16.232z"/>
		</g>
		<g>
			<g>
				<path fill="#247B8F" d="M236.089,162.307v56.313c0,1.396-1.131,2.521-2.521,2.521h-29.071c-1.395,0-2.524-1.125-2.524-2.521
					v-52.371c0-13.785-4.919-23.189-17.271-23.189c-9.429,0-15.029,6.335-17.498,12.465c-0.897,2.195-1.131,5.244-1.131,8.313
					v54.781c0,1.396-1.13,2.521-2.52,2.521h-29.061c-1.395,0-2.524-1.125-2.52-2.521c0.06-13.947,0.357-81.616,0.06-97.519
					c-0.026-1.417,1.108-2.553,2.52-2.553h29.007c1.389,0,2.52,1.125,2.52,2.52v12.017c-0.07,0.113-0.168,0.228-0.228,0.335h0.228
					v-0.335c4.529-6.979,12.616-16.946,30.736-16.946C219.261,116.138,236.089,130.798,236.089,162.307L236.089,162.307z
					 M81.518,221.139h29.067c1.389,0,2.519-1.125,2.519-2.521v-97.552c0-1.396-1.13-2.52-2.519-2.52H81.518
					c-1.389,0-2.514,1.125-2.514,2.52v97.552C79.004,220.014,80.129,221.139,81.518,221.139z"/>
			</g>
		</g>
	</g>
	<g>
		<path fill="#247B8F" d="M113.287,87.239c0,10.084-8.173,18.26-18.26,18.26c-10.082,0-18.255-8.176-18.255-18.26
			s8.173-18.26,18.255-18.26C105.114,68.979,113.287,77.154,113.287,87.239z"/>
	</g>
</g>
</svg>
