<?xml version="1.0" encoding="utf-8"?>
<!-- Generator: Adobe Illustrator 16.0.0, SVG Export Plug-In . SVG Version: 6.00 Build 0)  -->
<!DOCTYPE svg PUBLIC "-//W3C//DTD SVG 1.1//EN" "http://www.w3.org/Graphics/SVG/1.1/DTD/svg11.dtd">
<svg version="1.1" id="Capa_1" xmlns="http://www.w3.org/2000/svg" xmlns:xlink="http://www.w3.org/1999/xlink" x="0px" y="0px"
	 width="144.546px" height="61.2px" viewBox="0 0 144.546 61.2" enable-background="new 0 0 144.546 61.2" xml:space="preserve">
<path fill="#F9F9F6" d="M44.387,16.9c-0.634,0-0.95,0.316-0.95,0.949c0,0.4,0.107,0.809,0.325,1.226
	c0.216,0.417,0.508,0.774,0.875,1.075c0.366-1.033,0.55-1.732,0.55-2.1c0-0.4-0.075-0.691-0.225-0.875
	C44.812,16.992,44.62,16.9,44.387,16.9z"/>
<path fill="#F9F9F6" d="M43.663,9.1c0.649-0.266,0.976-0.615,0.976-1.049c0-0.268-0.268-0.483-0.801-0.65
	c-0.533-0.166-1.084-0.25-1.65-0.25c-1.066,0.033-2.059,0.217-2.975,0.55c-0.917,0.333-1.858,0.817-2.824,1.45
	c1.865,0.233,3.549,0.35,5.049,0.35C42.271,9.5,43.013,9.367,43.663,9.1z"/>
<path fill="#F9F9F6" d="M71.136,22.15c0-0.6-0.191-1.017-0.574-1.25c-0.384-0.232-0.908-0.35-1.575-0.35
	c-1.534,0-2.992,0.899-4.375,2.699c-1.384,1.801-2.575,3.918-3.575,6.35c2.732-0.865,5.1-1.916,7.1-3.149
	S71.136,23.783,71.136,22.15z"/>
<path fill="#F9F9F6" d="M102.911,48.525c-1.05,0.683-1.625,1.607-1.726,2.775c0,0.832,0.25,1.508,0.75,2.024s1.168,0.774,2,0.774
	c1.367,0,2.625-0.658,3.775-1.975s2.142-3.242,2.975-5.775c-1.399,0.301-2.316,0.483-2.75,0.551
	C105.636,47.301,103.96,47.842,102.911,48.525z"/>
<path fill="#F9F9F6" d="M28.728,47.709h-1.514v7.432h1.514c1.081,0,1.989-0.349,2.725-1.046c0.752-0.713,1.128-1.603,1.128-2.67
	s-0.376-1.957-1.128-2.67C30.717,48.058,29.809,47.709,28.728,47.709z"/>
<path fill="#F9F9F6" d="M65.02,50.847c-0.785,0-1.404,0.355-1.858,1.066c-0.138,0.216-0.234,0.452-0.289,0.709h4.294
	c-0.11-0.515-0.37-0.941-0.778-1.279C65.991,51.012,65.534,50.847,65.02,50.847z"/>
<path fill="#F9F9F6" d="M129.1,25.712l-0.257-0.118l-0.27-0.09c-0.728-0.241-1.371-0.354-2.023-0.354
	c-0.318,0-0.631,0.024-0.937,0.072c0.44-1.148,0.907-2.353,1.396-3.607l0.021-0.057l0.021-0.058
	c0.737-2.038,0.348-4.247-1.043-5.908c-1.197-1.442-2.875-2.243-4.709-2.243c-1.26,0-2.475,0.4-3.516,1.157
	c-0.852,0.616-1.518,1.43-1.947,2.374c-0.136-0.297-0.297-0.585-0.484-0.863c-1.121-1.689-2.967-2.668-5.053-2.668
	c-1.156,0-2.289,0.335-3.275,0.968c-1.116,0.712-1.941,1.749-2.383,2.998l-0.4,1.089c-1.482-3.17-4.596-5.055-8.741-5.055
	c-1.829,0-3.623,0.544-5.347,1.62c-1.783-1.731-6.283-2.794-9.727-2.218c-2.399,0.401-5.003,2.003-5.57,2.617
	c-1.201-0.92-3.162-1.919-6.006-1.919c-2.273,0-5.686,0.759-9.04,4.373c-0.909,0.98-1.75,2.052-2.519,3.208
	c0.229-4.605-5.213-8.813-7.054-8.502c0.909-1.287,1.413-2.8,1.413-4.43c0-2.694-1.34-5.065-3.676-6.506
	c-1.671-1.025-3.661-1.543-5.924-1.543h-0.102l-0.102,0.004c-2.225,0.091-4.372,0.565-6.385,1.411
	c-1.137,0.478-2.197,1.07-3.177,1.771c-1.005-0.263-2.195-0.59-3.563-0.979c-2.372-0.732-4.458-1.288-6.202-1.652
	C20.585,0.203,18.595,0,16.602,0c-2.379,0-4.657,0.644-6.772,1.913C7.789,3.137,6.125,4.81,4.884,6.886
	c-1.281,2.146-1.932,4.489-1.932,6.964c0,3.574,1.279,6.667,3.699,8.943c0.102,0.096,0.205,0.189,0.31,0.281
	c-1.825,1.259-3.353,2.86-4.55,4.775c-1.451,2.322-2.26,4.928-2.403,7.746l-0.004,0.078l-0.001,0.078
	c-0.049,2.478,0.456,4.794,1.502,6.885c1.104,2.212,2.744,3.991,4.875,5.286c2.104,1.278,4.551,1.85,7.271,1.927
	c0.41,0.012,1.602,0,2.002-0.007c0,0,1.081,11.357,11.081,11.357H103.8c2.258,0,5.613-0.748,8.768-4.31
	c1.605-1.813,2.929-3.971,4.178-6.965c3.285-1.279,6.193-3.294,8.515-5.614c2.732-2.733,5.053-6.34,6.897-10.721l0.076-0.181
	l0.062-0.186c0.241-0.729,0.354-1.372,0.354-2.024C132.65,28.828,131.29,26.726,129.1,25.712z M20.187,43.15
	c-1.566,1.133-3.699,1.699-6.399,1.699c-1.8,0-3.358-0.399-4.675-1.199c-1.317-0.801-2.317-1.883-3-3.25
	c-0.684-1.367-1.008-2.883-0.975-4.551c0.1-1.966,0.649-3.75,1.649-5.35s2.308-2.866,3.925-3.8c1.617-0.933,3.357-1.417,5.225-1.45
	c0.301,0,0.551,0.109,0.75,0.325c0.201,0.218,0.301,0.458,0.301,0.726c0,0.299-0.1,0.559-0.301,0.774
	c-0.199,0.218-0.449,0.325-0.75,0.325c-1.467,0-2.875,0.383-4.225,1.15c-1.35,0.767-2.434,1.809-3.25,3.125S7.238,34.4,7.238,35.9
	c0,2.033,0.574,3.684,1.725,4.949c1.15,1.268,2.758,1.9,4.825,1.9c2.133,0,3.825-0.449,5.075-1.35s2.291-2.208,3.125-3.926
	c0.832-1.716,1.967-4.49,3.4-8.324c0.1-0.232,0.199-0.492,0.299-0.775c0.101-0.283,0.217-0.592,0.351-0.925h-2.899
	c-0.301,0-0.551-0.108-0.75-0.325c-0.201-0.217-0.301-0.457-0.301-0.725c0-0.301,0.1-0.559,0.301-0.775
	c0.199-0.217,0.449-0.324,0.75-0.324h3.6l0.85-2.601c1.967-6.167,3.551-10.216,4.75-12.149c-0.8-0.167-2.283-0.566-4.449-1.201
	l-1.051-0.299c-2.3-0.667-4.175-1.158-5.625-1.476C19.763,7.259,18.271,7.1,16.738,7.1c-1.1,0-2.158,0.318-3.176,0.951
	c-1.017,0.633-1.833,1.475-2.449,2.524c-0.617,1.05-0.926,2.125-0.926,3.226c0,1.732,0.525,3.041,1.576,3.924
	c1.049,0.885,2.457,1.326,4.225,1.326c1.433,0,2.949-0.351,4.55-1.051c0.2-0.066,0.366-0.1,0.5-0.1c0.333,0,0.583,0.117,0.75,0.35
	c0.167,0.234,0.25,0.467,0.25,0.7c0,0.434-0.2,0.75-0.601,0.95c-1.833,0.834-3.666,1.25-5.5,1.25c-2.399,0-4.309-0.666-5.725-2
	c-1.417-1.333-2.125-3.1-2.125-5.301c0-1.566,0.408-3.032,1.225-4.399C10.128,8.084,11.205,7,12.538,6.2s2.733-1.2,4.2-1.2
	c1.666,0,3.3,0.168,4.9,0.5c1.6,0.334,3.532,0.85,5.799,1.551c2.801,0.799,4.9,1.35,6.301,1.649c1.066-1.133,2.332-2.008,3.8-2.625
	c1.466-0.616,3.017-0.958,4.649-1.024c1.334,0,2.434,0.267,3.301,0.799c0.866,0.534,1.3,1.284,1.3,2.25
	c0,1.068-0.534,1.918-1.601,2.551s-2.316,0.949-3.75,0.949c-2.133,0-4.434-0.199-6.899-0.6c-1.267,2.067-2.917,6.184-4.95,12.35
	l-0.6,1.951h4.449c0.301,0,0.551,0.107,0.75,0.324c0.201,0.217,0.301,0.475,0.301,0.775c0,0.268-0.1,0.508-0.301,0.725
	c-0.199,0.217-0.449,0.325-0.75,0.325h-5.149c-1.8,5.034-3.208,8.625-4.226,10.774C23.045,40.375,21.753,42.018,20.187,43.15z
	 M33.139,53.304c-0.252,0.573-0.594,1.066-1.025,1.479s-0.94,0.736-1.528,0.971c-0.587,0.233-1.216,0.351-1.886,0.351h-2.45v-9.359
	h2.45c0.67,0,1.298,0.117,1.886,0.352c0.587,0.233,1.097,0.557,1.528,0.97s0.773,0.906,1.025,1.479
	c0.252,0.574,0.378,1.2,0.378,1.879S33.392,52.73,33.139,53.304z M42.789,56.104h-0.963v-1.038
	c-0.454,0.774-1.128,1.162-2.023,1.162c-0.679,0-1.209-0.224-1.589-0.671c-0.381-0.447-0.571-1.022-0.571-1.724v-3.785h0.963v3.785
	c0,0.395,0.089,0.731,0.269,1.011c0.179,0.28,0.475,0.42,0.888,0.42c0.751,0,1.283-0.236,1.596-0.71
	c0.313-0.474,0.469-1.131,0.469-1.974v-2.532h0.963V56.104z M48.083,56.104H47.12V45.782h0.963V56.104z M53.813,54.598
	c0.407,0.427,0.905,0.64,1.494,0.64c0.385,0,0.741-0.101,1.066-0.303s0.581-0.473,0.764-0.812h1.087
	c-0.342,0.969-0.998,1.623-1.968,1.961c-0.303,0.105-0.647,0.158-1.032,0.158c-0.386,0-0.767-0.085-1.143-0.255
	s-0.702-0.399-0.977-0.688c-0.597-0.627-0.895-1.367-0.895-2.224c0-0.86,0.298-1.6,0.895-2.216c0.604-0.624,1.338-0.936,2.202-0.936
	c0.694,0,1.32,0.216,1.878,0.646c0.54,0.417,0.904,0.967,1.094,1.652h-1.046c-0.165-0.386-0.422-0.698-0.771-0.937
	s-0.702-0.357-1.06-0.357s-0.665,0.057-0.922,0.172c-0.257,0.114-0.479,0.271-0.667,0.468c-0.408,0.429-0.612,0.931-0.612,1.507
	C53.201,53.662,53.405,54.169,53.813,54.598z M68.185,53.448h-5.327c0.093,0.52,0.345,0.946,0.757,1.28
	c0.419,0.339,0.888,0.509,1.404,0.509c0.349,0,0.681-0.08,0.998-0.241c0.316-0.16,0.581-0.383,0.792-0.667h1.101
	c-0.257,0.578-0.645,1.034-1.163,1.369s-1.046,0.503-1.583,0.503c-0.537,0-0.996-0.083-1.376-0.248s-0.716-0.39-1.005-0.675
	c-0.619-0.609-0.929-1.353-0.929-2.229c0-0.871,0.31-1.617,0.929-2.236c0.62-0.619,1.365-0.929,2.237-0.929
	c0.846,0,1.583,0.298,2.209,0.895c0.638,0.607,0.957,1.327,0.957,2.16V53.448z M75.351,51.301c-0.222-0.201-0.459-0.303-0.71-0.303
	s-0.467,0.071-0.646,0.214c-0.179,0.142-0.328,0.316-0.447,0.522c-0.229,0.397-0.344,0.845-0.344,1.342v3.028h-0.964v-6.056h0.964
	v1.252l0.041-0.247c0.322-0.753,0.822-1.129,1.5-1.129c0.211,0,0.413,0.041,0.605,0.124V51.301z M80.027,56.104h-0.963v-6.056h0.963
	V56.104z M80.096,48.7h-0.771l1.102-1.969h1.184L80.096,48.7z M90.403,56.104h-0.964V55.07c-0.054,0.07-0.111,0.141-0.172,0.208
	c-0.572,0.643-1.275,0.964-2.112,0.964s-1.541-0.321-2.112-0.964c-0.556-0.623-0.834-1.357-0.834-2.202s0.278-1.578,0.834-2.202
	c0.571-0.642,1.275-0.963,2.112-0.963s1.54,0.321,2.112,0.963c0.061,0.068,0.118,0.138,0.172,0.209v-1.034h0.964V56.104z
	 M127.685,31.65c-1.6,3.8-3.541,6.842-5.824,9.125s-5.192,3.941-8.725,4.975c-1.234,3.467-2.625,6.075-4.176,7.825
	c-1.55,1.75-3.225,2.625-5.025,2.625c-1.466,0-2.641-0.442-3.524-1.325c-0.883-0.883-1.325-2.059-1.325-3.525
	c0-3.333,2.817-5.517,8.45-6.549c1.5-0.234,2.816-0.5,3.95-0.801l1.25-3.6c-1.2,1.133-2.467,1.699-3.801,1.699
	c-1.934,0-3.324-0.524-4.174-1.574c-0.544-0.672-0.895-1.438-1.09-2.28c-0.586,0.832-1.234,1.597-1.961,2.28
	c-1.117,1.05-2.357,1.574-3.725,1.574c-1.199,0-2.108-0.383-2.725-1.149c-0.617-0.767-0.926-1.782-0.926-3.05
	c0-1.033,0.167-2.125,0.5-3.275c0.334-1.15,0.851-2.658,1.551-4.525c0.6-1.633,1.058-2.99,1.375-4.074
	c0.316-1.083,0.475-2.075,0.475-2.975c0-1.733-0.867-2.601-2.6-2.601c-0.9,0-1.893,0.575-2.975,1.726
	c-1.084,1.149-2.101,2.559-3.051,4.225c-0.949,1.667-1.691,3.217-2.225,4.65l-3.4,10c-0.167,0.467-0.5,0.699-1,0.699
	c-0.367,0-0.658-0.15-0.875-0.449c-0.217-0.301-0.258-0.617-0.125-0.951l3.4-10.049c0.633-1.834,1.092-3.268,1.375-4.301
	s0.425-1.949,0.425-2.75c0-0.933-0.2-1.633-0.601-2.1c-0.399-0.467-1.033-0.7-1.899-0.7c-1.167,0-2.617,1.218-4.351,3.649
	c-0.434,0.668-1.199,2.01-2.299,4.025c-0.885,1.622-1.463,2.711-1.743,3.287c-0.017,0.057-0.032,0.112-0.057,0.188
	c-0.061,0.134-0.124,0.258-0.185,0.389L72.736,41.4c-0.1,0.3-0.275,0.508-0.525,0.625c-0.25,0.116-0.524,0.141-0.824,0.074
	c-0.267-0.1-0.467-0.282-0.6-0.549c-0.133-0.268-0.15-0.533-0.051-0.801l0.58-1.627c-0.15,0.145-0.301,0.294-0.454,0.428
	c-1.95,1.699-4.192,2.549-6.726,2.549c-2.066,0-3.691-0.625-4.875-1.875c-0.828-0.876-1.344-1.956-1.559-3.232
	c-0.643,1.088-1.266,1.99-1.865,2.684c-1.4,1.617-2.934,2.424-4.601,2.424h-0.05c-1.134,0-2.009-0.383-2.625-1.149
	c-0.617-0.767-0.925-1.782-0.925-3.05c0-0.967,0.166-2.051,0.5-3.25c0.2-0.767,0.7-2.367,1.5-4.801
	c0.8-2.432,1.316-3.949,1.55-4.549c-1.533-0.5-2.692-0.893-3.475-1.176c-0.784-0.283-1.442-0.558-1.976-0.824
	c-0.1,0.333-0.767,1.816-2,4.449l-1.73,3.802c-0.099,0.23-0.233,0.437-0.354,0.635c-0.784,1.3-1.692,2.375-2.726,3.225
	s-2.199,1.309-3.5,1.375c0,0-1.969,0-2.3-0.9c0,0-0.083-0.399-0.05-0.5c0.033-0.232,0.15-0.425,0.35-0.574
	c0.2-0.15,0.434-0.226,0.7-0.226c0.2,0,0.383,0.018,0.55,0.05c0.167,0.034,0.316,0.051,0.45,0.051c1.433,0,2.691-0.733,3.775-2.2
	c0.405-0.549,0.822-1.193,1.248-1.915l3.136-6.821l0.601-1.5c-1.7-1.199-2.55-2.6-2.55-4.199c0-1,0.3-1.792,0.899-2.375
	c0.601-0.584,1.316-0.875,2.15-0.875c0.899,0,1.607,0.299,2.125,0.899c0.517,0.601,0.774,1.399,0.774,2.399
	c0,0.301-0.042,0.625-0.125,0.976s-0.191,0.726-0.324,1.125c-0.134,0.399-0.25,0.767-0.351,1.101c0.767,0.399,2.283,0.982,4.55,1.75
	c0.767,0.232,1.4,0.434,1.9,0.6c0.433,0.167,0.65,0.518,0.65,1.05c0,0.167-0.018,0.3-0.051,0.399
	c-0.333,0.867-0.941,2.609-1.824,5.226c-0.884,2.617-1.393,4.226-1.525,4.825c-0.233,0.834-0.384,1.75-0.45,2.75
	c0,1.4,0.5,2.1,1.5,2.1c1.2,0,2.333-0.707,3.4-2.125c1.05-1.394,2.294-3.722,3.731-6.974c0.274-0.946,0.598-1.915,1.018-2.927
	c1.101-2.649,2.508-4.899,4.226-6.75c1.716-1.85,3.508-2.774,5.375-2.774c1.267,0,2.292,0.325,3.075,0.976
	c0.783,0.649,1.175,1.559,1.175,2.725c0,2.4-1.309,4.434-3.925,6.1c-2.617,1.668-5.643,2.918-9.075,3.75
	c-0.367,1.268-0.55,2.45-0.55,3.551c0,1.399,0.408,2.492,1.225,3.274C61.728,39.609,62.886,40,64.386,40c2,0,3.809-0.75,5.426-2.25
	c1.616-1.5,3.107-3.832,4.475-7c0.008-0.014,0.02-0.022,0.027-0.035l4.122-11.564c0.167-0.467,0.5-0.7,1-0.7
	c0.366,0,0.657,0.149,0.875,0.45c0.216,0.3,0.258,0.617,0.125,0.949c-0.2,0.434-0.367,0.885-0.5,1.351
	c1.633-1.899,3.216-2.851,4.75-2.851c1.466,0,2.601,0.426,3.399,1.275c0.801,0.85,1.201,1.959,1.201,3.325
	c0.799-1.267,1.782-2.351,2.949-3.25c1.166-0.899,2.301-1.351,3.4-1.351c3.133,0,4.699,1.568,4.699,4.701
	c0,1.1-0.174,2.258-0.524,3.475s-0.843,2.658-1.476,4.324c-0.633,1.701-1.1,3.068-1.399,4.101c-0.3,1.034-0.45,2.017-0.45,2.95
	c0,0.733,0.117,1.268,0.35,1.6c0.233,0.334,0.617,0.5,1.15,0.5c1.2,0,2.342-0.725,3.426-2.175c1.014-1.358,2.17-3.524,3.463-6.479
	c0.333-0.911,0.735-1.974,1.211-3.196l0.6-1.551l2.801-7.6c0.066-0.199,0.191-0.357,0.375-0.475
	c0.183-0.117,0.375-0.176,0.574-0.176c0.4,0,0.701,0.15,0.9,0.451c0.2,0.299,0.232,0.617,0.1,0.949l-2.75,7.6l-1.5,4.101
	c-0.6,1.567-1.008,2.692-1.225,3.375c-0.217,0.684-0.324,1.325-0.324,1.925c0,2.168,1.1,3.25,3.299,3.25
	c1.268,0,2.625-1.074,4.076-3.225c1.449-2.15,2.707-4.758,3.774-7.825c0.3-0.899,0.782-2.25,1.45-4.05c0.6-1.5,1.35-3.45,2.25-5.85
	c0.066-0.201,0.191-0.367,0.375-0.5c0.183-0.133,0.375-0.201,0.574-0.201c0.334,0,0.625,0.15,0.875,0.451
	c0.25,0.299,0.309,0.633,0.176,1c-1.467,3.767-2.717,7.049-3.75,9.85l-4,11.4l-0.75,2.199c2.732-0.934,5.041-2.449,6.925-4.55
	c1.883-2.101,3.491-4.733,4.825-7.899c0.232-0.434,0.55-0.65,0.949-0.65c0.101,0,0.25,0.033,0.451,0.1
	c0.432,0.2,0.649,0.518,0.649,0.95C127.786,31.301,127.751,31.45,127.685,31.65z"/>
<path fill="#F9F9F6" d="M87.306,50.874c-0.604,0-1.111,0.221-1.521,0.661c-0.408,0.438-0.611,0.952-0.611,1.541
	c0,0.59,0.203,1.104,0.611,1.542c0.41,0.44,0.918,0.66,1.521,0.66s1.11-0.22,1.521-0.66c0.409-0.438,0.612-0.952,0.612-1.542
	c0-0.589-0.203-1.103-0.612-1.541C88.417,51.095,87.91,50.874,87.306,50.874z"/>
<path fill="#F9F9F6" d="M130.719,18.826c0,0,8.395-2.518,6.153-8.243c-1.365-3.488-6.08-2.266-6.278,1.499
	C130.436,15.106,131.974,16.743,130.719,18.826z"/>
<path fill="#F9F9F6" d="M129.833,22.916c0,0,7.692-8.043,13.182-2.246c3.918,4.139-0.342,9.632-5.388,6.346
	C135.167,25.414,133.516,23.101,129.833,22.916z"/>
</svg>
