<?xml version="1.0" encoding="utf-8"?>
<!-- Generator: Adobe Illustrator 16.0.0, SVG Export Plug-In . SVG Version: 6.00 Build 0)  -->
<!DOCTYPE svg PUBLIC "-//W3C//DTD SVG 1.1//EN" "http://www.w3.org/Graphics/SVG/1.1/DTD/svg11.dtd">
<svg version="1.1" id="Capa_1" xmlns="http://www.w3.org/2000/svg" xmlns:xlink="http://www.w3.org/1999/xlink" x="0px" y="0px"
	 width="460.615px" height="195.022px" viewBox="83.858 322.778 460.615 195.022"
	 enable-background="new 83.858 322.778 460.615 195.022" xml:space="preserve">
<path fill="#F9F9F6" d="M495.253,404.71l-0.818-0.376l-0.859-0.286c-2.318-0.769-4.369-1.126-6.447-1.126
	c-1.014,0-2.01,0.078-2.984,0.23c1.404-3.659,2.893-7.497,4.447-11.495l0.068-0.181l0.068-0.185
	c2.35-6.495,1.107-13.534-3.324-18.827c-3.814-4.597-9.16-7.147-15.006-7.147c-4.014,0-7.887,1.275-11.201,3.688
	c-2.715,1.963-4.836,4.557-6.207,7.565c-0.434-0.946-0.945-1.864-1.543-2.751c-3.572-5.384-9.453-8.502-16.102-8.502
	c-3.686,0-7.295,1.066-10.438,3.084c-3.559,2.269-6.188,5.574-7.594,9.554l-1.275,3.47c-4.725-10.101-14.646-16.106-27.855-16.106
	c-5.826,0-11.545,1.732-17.037,5.163c-5.682-5.519-20.021-8.903-30.994-7.067c-7.646,1.279-15.941,6.383-17.75,8.34
	c-3.828-2.931-10.076-6.114-19.139-6.114c-7.245,0-18.118,2.418-28.808,13.935c-2.897,3.125-5.577,6.538-8.025,10.223
	c0.728-14.676-16.612-28.085-22.478-27.092c2.897-4.102,4.503-8.922,4.503-14.116c0-8.586-4.27-16.142-11.713-20.73
	c-5.325-3.269-11.667-4.917-18.877-4.917h-0.324l-0.324,0.012c-7.089,0.29-13.932,1.802-20.346,4.497
	c-3.623,1.521-7.002,3.411-10.123,5.646c-3.202-0.838-6.996-1.881-11.353-3.122c-7.559-2.333-14.206-4.104-19.764-5.266
	c-6.174-1.282-12.516-1.93-18.868-1.93c-7.581,0-14.841,2.051-21.581,6.097c-6.504,3.899-11.807,9.229-15.759,15.847
	c-4.083,6.837-6.156,14.306-6.156,22.19c0,11.39,4.077,21.245,11.788,28.499c0.324,0.305,0.654,0.604,0.986,0.896
	c-5.816,4.011-10.683,9.114-14.499,15.217c-4.624,7.399-7.201,15.703-7.658,24.684l-0.013,0.249l-0.003,0.249
	c-0.155,7.896,1.453,15.276,4.786,21.939c3.517,7.049,8.745,12.719,15.535,16.845c6.703,4.073,14.502,5.896,23.171,6.141
	c1.307,0.037,5.104,0,6.38-0.021c0,0,3.445,36.191,35.311,36.191h245.577c7.195,0,17.889-2.385,27.939-13.732
	c5.115-5.776,9.332-12.653,13.313-22.194c10.469-4.076,19.736-10.497,27.133-17.891c8.707-8.71,16.104-20.203,21.98-34.163
	l0.242-0.575l0.195-0.592c0.77-2.321,1.131-4.372,1.131-6.451C506.564,414.641,502.23,407.941,495.253,404.71z"/>
<g>
	<g>
		<path fill="#EC6798" d="M192.801,409.213c0.641-0.69,0.958-1.456,0.958-2.309c0-0.958-0.317-1.78-0.958-2.471
			c-0.635-0.691-1.432-1.033-2.39-1.033h-14.178l1.911-6.218c6.479-19.648,11.738-32.766,15.774-39.354
			c7.857,1.276,15.189,1.911,21.986,1.911c4.568,0,8.551-1.008,11.95-3.025c3.398-2.017,5.101-4.724,5.101-8.128
			c0-3.077-1.382-5.468-4.142-7.17c-2.764-1.695-6.268-2.545-10.519-2.545c-5.203,0.211-10.145,1.301-14.816,3.265
			c-4.677,1.967-8.71,4.755-12.108,8.364c-4.462-0.956-11.153-2.711-20.078-5.256c-7.223-2.233-13.381-3.877-18.479-4.941
			c-5.101-1.059-10.307-1.594-15.616-1.594c-4.674,0-9.137,1.275-13.384,3.824c-4.248,2.549-7.677,6.003-10.279,10.356
			c-2.602,4.356-3.902,9.027-3.902,14.02c0,7.014,2.256,12.645,6.771,16.893c4.512,4.251,10.596,6.372,18.242,6.372
			c5.844,0,11.685-1.325,17.526-3.982c1.276-0.638,1.914-1.646,1.914-3.028c0-0.744-0.264-1.483-0.796-2.23
			c-0.532-0.741-1.329-1.114-2.39-1.114c-0.426,0-0.955,0.104-1.593,0.316c-5.101,2.231-9.933,3.35-14.499,3.35
			c-5.632,0-10.12-1.407-13.462-4.227c-3.349-2.813-5.023-6.982-5.023-12.504c0-3.507,0.983-6.933,2.95-10.278
			c1.964-3.346,4.565-6.028,7.805-8.044c3.243-2.018,6.616-3.031,10.12-3.031c4.886,0,9.641,0.507,14.259,1.516
			c4.621,1.011,10.596,2.577,17.925,4.702l3.349,0.952c6.902,2.021,11.629,3.295,14.178,3.828
			c-3.821,6.162-8.869,19.063-15.137,38.715l-2.707,8.287h-11.471c-0.958,0-1.755,0.342-2.39,1.033
			c-0.641,0.69-0.958,1.513-0.958,2.471c0,0.853,0.317,1.618,0.958,2.309c0.635,0.691,1.432,1.037,2.39,1.037h9.239
			c-0.426,1.062-0.796,2.044-1.117,2.947c-0.317,0.902-0.635,1.729-0.952,2.471c-4.568,12.218-8.185,21.06-10.836,26.525
			c-2.657,5.475-5.975,9.642-9.958,12.511c-3.983,2.869-9.376,4.3-16.173,4.3c-6.588,0-11.71-2.016-15.376-6.056
			c-3.666-4.032-5.496-9.292-5.496-15.771c0-4.78,1.301-9.269,3.902-13.463c2.602-4.194,6.056-7.516,10.356-9.959
			c4.301-2.445,8.788-3.666,13.462-3.666c0.958,0,1.755-0.342,2.39-1.036c0.641-0.688,0.958-1.516,0.958-2.468
			c0-0.853-0.317-1.618-0.958-2.312c-0.635-0.688-1.431-1.036-2.39-1.036c-5.95,0.105-11.496,1.648-16.649,4.621
			c-5.153,2.975-9.32,7.011-12.507,12.107c-3.187,5.098-4.938,10.783-5.256,17.048c-0.106,5.314,0.927,10.145,3.105,14.502
			c2.175,4.355,5.362,7.805,9.56,10.355c4.195,2.548,9.161,3.821,14.896,3.821c8.604,0,15.401-1.805,20.393-5.415
			c4.992-3.609,9.109-8.844,12.348-15.696c3.243-6.85,7.73-18.292,13.465-34.334h16.409
			C191.37,410.25,192.167,409.904,192.801,409.213z M208.815,347.314c2.919-1.063,6.081-1.646,9.479-1.752
			c1.805,0,3.56,0.268,5.259,0.797c1.699,0.532,2.552,1.22,2.552,2.073c0,1.381-1.04,2.496-3.109,3.342
			c-2.069,0.853-4.435,1.275-7.092,1.275c-4.78,0-10.145-0.369-16.089-1.113C202.893,349.919,205.893,348.375,208.815,347.314z"/>
		<path fill="#EC6798" d="M488.996,419.172c-0.643-0.212-1.117-0.316-1.439-0.316c-1.271,0-2.283,0.689-3.023,2.072
			c-4.25,10.089-9.375,18.479-15.375,25.173c-6.004,6.693-13.359,11.522-22.066,14.498l2.391-7.008l12.744-36.329
			c3.295-8.926,7.277-19.385,11.951-31.388c0.422-1.17,0.236-2.233-0.561-3.187c-0.797-0.958-1.725-1.438-2.789-1.438
			c-0.635,0-1.248,0.218-1.83,0.642c-0.584,0.423-0.982,0.951-1.193,1.594c-2.869,7.646-5.26,13.859-7.17,18.64
			c-2.129,5.735-3.666,10.039-4.621,12.905c-3.4,9.775-7.41,18.083-12.027,24.937c-4.625,6.853-8.949,10.274-12.99,10.274
			c-7.008,0-10.512-3.448-10.512-10.355c0-1.911,0.344-3.955,1.033-6.135c0.689-2.175,1.99-5.76,3.902-10.755l4.779-13.066
			l8.764-24.218c0.424-1.058,0.32-2.072-0.316-3.024c-0.637-0.958-1.594-1.438-2.869-1.438c-0.637,0-1.248,0.188-1.83,0.561
			c-0.586,0.374-0.984,0.877-1.195,1.512l-8.926,24.217l-1.91,4.942c-1.516,3.896-2.797,7.282-3.859,10.185
			c-4.119,9.414-7.805,16.316-11.033,20.646c-3.453,4.622-7.094,6.931-10.916,6.931c-1.699,0-2.922-0.528-3.666-1.593
			c-0.74-1.059-1.115-2.761-1.115-5.098c0-2.977,0.479-6.105,1.436-9.401c0.955-3.289,2.443-7.646,4.459-13.067
			c2.018-5.309,3.586-9.901,4.703-13.78c1.117-3.878,1.67-7.567,1.67-11.071c0-9.983-4.99-14.98-14.975-14.98
			c-3.504,0-7.119,1.438-10.836,4.305c-3.719,2.865-6.854,6.319-9.396,10.355c0-4.354-1.275-7.889-3.828-10.596
			c-2.545-2.708-6.16-4.064-10.832-4.064c-4.891,0-9.934,3.031-15.137,9.083c0.422-1.483,0.955-2.922,1.592-4.304
			c0.426-1.058,0.291-2.07-0.396-3.025c-0.693-0.958-1.621-1.435-2.789-1.435c-1.592,0-2.654,0.744-3.188,2.23l-13.135,36.853
			c-0.023,0.04-0.063,0.067-0.088,0.112c-4.355,10.095-9.107,17.525-14.258,22.306c-5.154,4.78-10.917,7.17-17.291,7.17
			c-4.78,0-8.471-1.245-11.072-3.743c-2.602-2.492-3.902-5.976-3.902-10.435c0-3.507,0.582-7.276,1.752-11.315
			c10.938-2.65,20.579-6.634,28.919-11.95c8.338-5.309,12.508-11.788,12.508-19.437c0-3.716-1.248-6.613-3.744-8.683
			c-2.496-2.072-5.764-3.108-9.799-3.108c-5.952,0-11.662,2.947-17.129,8.841c-5.474,5.897-9.958,13.067-13.465,21.51
			c-1.338,3.225-2.368,6.312-3.243,9.327c-4.581,10.363-8.545,17.782-11.891,22.223c-3.401,4.519-7.011,6.771-10.836,6.771
			c-3.187,0-4.78-2.229-4.78-6.689c0.211-3.188,0.691-6.105,1.435-8.765c0.423-1.91,2.044-7.036,4.861-15.376
			c2.813-8.337,4.752-13.888,5.813-16.652c0.106-0.316,0.162-0.74,0.162-1.271c0-1.696-0.694-2.813-2.073-3.345
			c-1.593-0.529-3.613-1.171-6.056-1.911c-7.223-2.446-12.056-4.305-14.499-5.576c0.32-1.064,0.69-2.234,1.117-3.507
			c0.423-1.273,0.769-2.469,1.033-3.585c0.264-1.117,0.398-2.15,0.398-3.109c0-3.187-0.821-5.732-2.468-7.646
			c-1.649-1.914-3.905-2.866-6.771-2.866c-2.658,0-4.938,0.927-6.853,2.789c-1.911,1.856-2.866,4.381-2.866,7.567
			c0,5.099,2.707,9.561,8.125,13.381l-1.914,4.78l-9.993,21.736c-1.357,2.3-2.686,4.354-3.977,6.104
			c-3.454,4.675-7.465,7.012-12.031,7.012c-0.426,0-0.902-0.054-1.435-0.162c-0.532-0.103-1.114-0.159-1.752-0.159
			c-0.85,0-1.593,0.24-2.231,0.719c-0.635,0.478-1.008,1.091-1.114,1.83c-0.106,0.32,0.159,1.595,0.159,1.595
			C190.48,440,196.754,440,196.754,440c4.145-0.212,7.861-1.674,11.153-4.382c3.292-2.707,6.187-6.134,8.686-10.274
			c0.383-0.633,0.813-1.288,1.126-2.022l5.515-12.115c3.93-8.39,6.056-13.117,6.373-14.178c1.699,0.85,3.796,1.724,6.295,2.626
			c2.493,0.902,6.187,2.153,11.072,3.747c-0.744,1.911-2.39,6.747-4.938,14.496c-2.549,7.754-4.142,12.854-4.78,15.298
			c-1.064,3.821-1.593,7.275-1.593,10.356c0,4.039,0.98,7.274,2.947,9.719c1.963,2.442,4.752,3.662,8.365,3.662h0.159
			c5.312,0,10.198-2.57,14.66-7.725c1.911-2.209,3.896-5.085,5.944-8.552c0.685,4.067,2.328,7.51,4.967,10.301
			c3.771,3.983,8.95,5.976,15.535,5.976c8.072,0,15.216-2.707,21.431-8.122c0.488-0.426,0.969-0.902,1.447-1.362l-1.848,5.185
			c-0.318,0.854-0.264,1.698,0.16,2.552c0.424,0.85,1.063,1.432,1.91,1.749c0.955,0.212,1.83,0.134,2.627-0.236
			c0.797-0.373,1.357-1.036,1.676-1.991l10.566-29.993c0.193-0.416,0.396-0.813,0.588-1.237c0.078-0.24,0.129-0.417,0.182-0.599
			c0.893-1.836,2.734-5.306,5.555-10.475c3.504-6.423,5.943-10.699,7.326-12.828c5.521-7.749,10.145-11.629,13.863-11.629
			c2.76,0,4.779,0.744,6.053,2.23c1.275,1.487,1.914,3.72,1.914,6.69c0,2.552-0.451,5.471-1.355,8.764
			c-0.9,3.292-2.365,7.86-4.381,13.705l-10.836,32.022c-0.424,1.063-0.293,2.072,0.398,3.031c0.689,0.952,1.617,1.432,2.787,1.432
			c1.594,0,2.654-0.741,3.188-2.229l10.836-31.866c1.699-4.568,4.064-9.508,7.09-14.819c3.027-5.31,6.268-9.799,9.723-13.462
			c3.445-3.666,6.607-5.499,9.479-5.499c5.521,0,8.283,2.764,8.283,8.287c0,2.865-0.504,6.027-1.512,9.479
			c-1.014,3.455-2.473,7.78-4.383,12.983c-2.23,5.95-3.877,10.755-4.941,14.421c-1.063,3.666-1.594,7.146-1.594,10.438
			c0,4.039,0.982,7.274,2.949,9.719c1.965,2.441,4.861,3.662,8.684,3.662c4.355,0,8.309-1.671,11.869-5.017
			c2.314-2.179,4.383-4.614,6.25-7.267c0.621,2.683,1.738,5.125,3.473,7.267c2.707,3.346,7.139,5.017,13.299,5.017
			c4.252,0,8.287-1.806,12.113-5.414l-3.984,11.47c-3.613,0.959-7.807,1.806-12.588,2.552c-17.949,3.29-26.928,10.248-26.928,20.869
			c0,4.674,1.41,8.421,4.223,11.234c2.816,2.813,6.563,4.223,11.232,4.223c5.736,0,11.074-2.788,16.014-8.365
			c4.941-5.575,9.373-13.889,13.307-24.936c11.256-3.293,20.525-8.576,27.803-15.854c7.275-7.274,13.463-16.969,18.559-29.076
			c0.213-0.64,0.322-1.114,0.322-1.437C491.064,420.821,490.371,419.81,488.996,419.172z M226.102,386.988
			c-1.17-0.958-2.101-2.098-2.789-3.426c-0.694-1.329-1.036-2.629-1.036-3.906c0-2.017,1.008-3.024,3.028-3.024
			c0.741,0,1.354,0.292,1.833,0.878c0.476,0.585,0.716,1.512,0.716,2.787C227.854,381.468,227.269,383.696,226.102,386.988z
			 M289.753,396.865c4.406-5.735,9.053-8.601,13.942-8.601c2.125,0,3.797,0.374,5.02,1.113c1.221,0.744,1.83,2.073,1.83,3.983
			c0,5.203-3.188,9.771-9.561,13.702c-6.373,3.93-13.917,7.277-22.624,10.036C281.547,409.351,285.344,402.604,289.753,396.865z
			 M427.091,488.88c-3.664,4.194-7.674,6.292-12.029,6.292c-2.65,0-4.779-0.821-6.373-2.469c-1.594-1.646-2.391-3.799-2.391-6.449
			c0.32-3.724,2.154-6.67,5.498-8.846c3.346-2.178,8.688-3.901,16.012-5.178c1.383-0.215,4.305-0.797,8.764-1.756
			C433.917,478.548,430.757,484.684,427.091,488.88z"/>
	</g>
</g>
<g>
	<g>
		<path fill="#257C90" d="M189.45,492.64c-0.804,1.826-1.892,3.396-3.266,4.712s-2.996,2.346-4.866,3.091
			c-1.871,0.745-3.873,1.118-6.006,1.118h-7.803V471.75h7.803c2.133,0,4.135,0.373,6.006,1.118c1.87,0.745,3.492,1.775,4.866,3.092
			c1.374,1.314,2.462,2.886,3.266,4.713c0.804,1.825,1.206,3.82,1.206,5.982C190.656,488.818,190.254,490.813,189.45,492.64z
			 M184.08,478.15c-2.345-2.221-5.238-3.331-8.68-3.331h-4.822v23.673h4.822c3.442,0,6.335-1.11,8.68-3.332
			c2.396-2.271,3.595-5.104,3.595-8.505C187.675,483.256,186.477,480.422,184.08,478.15z"/>
		<path fill="#257C90" d="M210.69,501.955c-2.163,0-3.851-0.712-5.063-2.137c-1.213-1.425-1.819-3.255-1.819-5.491v-12.056h3.068
			v12.056c0,1.257,0.285,2.331,0.855,3.224c0.57,0.891,1.512,1.337,2.828,1.337c2.392,0,4.086-0.754,5.082-2.264
			c0.996-1.508,1.494-3.604,1.494-6.285v-8.066h3.069v19.289h-3.069v-3.306C215.689,500.722,213.541,501.955,210.69,501.955z"/>
		<path fill="#257C90" d="M234.013,501.561v-32.879h3.068v32.879H234.013z"/>
		<path fill="#257C90" d="M266.233,489.198c-0.526-1.228-1.344-2.222-2.455-2.98c-1.111-0.761-2.236-1.141-3.376-1.141
			c-1.14,0-2.119,0.184-2.937,0.548c-0.818,0.365-1.527,0.862-2.126,1.491c-1.301,1.363-1.951,2.964-1.951,4.8
			c0,1.865,0.65,3.48,1.951,4.846c1.295,1.357,2.881,2.038,4.756,2.038c1.228,0,2.36-0.321,3.397-0.966
			c1.038-0.643,1.849-1.505,2.433-2.586h3.463c-1.09,3.089-3.18,5.171-6.269,6.247c-0.964,0.336-2.061,0.504-3.288,0.504
			s-2.44-0.271-3.639-0.812c-1.198-0.54-2.235-1.271-3.112-2.191c-1.9-1.994-2.85-4.354-2.85-7.08c0-2.741,0.95-5.095,2.85-7.058
			c1.923-1.987,4.261-2.98,7.014-2.98c2.21,0,4.205,0.687,5.984,2.061c1.718,1.326,2.879,3.079,3.485,5.261L266.233,489.198
			L266.233,489.198z"/>
		<path fill="#257C90" d="M301.128,493.1h-16.964c0.296,1.656,1.1,3.016,2.411,4.077c1.336,1.081,2.827,1.622,4.472,1.622
			c1.11,0,2.17-0.256,3.178-0.769c1.008-0.511,1.849-1.22,2.521-2.126h3.507c-0.818,1.842-2.053,3.295-3.705,4.362
			c-1.651,1.066-3.332,1.6-5.041,1.6c-1.71,0-3.171-0.263-4.384-0.789c-1.213-0.524-2.279-1.241-3.2-2.146
			c-1.973-1.941-2.959-4.311-2.959-7.104c0-2.775,0.986-5.149,2.959-7.123c1.973-1.974,4.348-2.96,7.124-2.96
			c2.696,0,5.042,0.95,7.036,2.851c2.031,1.935,3.046,4.229,3.046,6.883v1.622H301.128z M295.408,486.393
			c-1.269-1.053-2.723-1.578-4.362-1.578c-2.5,0-4.473,1.132-5.918,3.397c-0.438,0.687-0.745,1.438-0.92,2.258h13.678
			C297.534,488.829,296.708,487.471,295.408,486.393z"/>
		<path fill="#257C90" d="M321.708,485.298c-0.801,0-1.486,0.227-2.057,0.679c-0.57,0.453-1.045,1.009-1.426,1.666
			c-0.73,1.265-1.096,2.688-1.096,4.273v9.646h-3.068v-19.289h3.068v3.989l0.131-0.789c1.027-2.396,2.621-3.596,4.779-3.596
			c0.672,0,1.314,0.133,1.928,0.396v3.989C323.263,485.618,322.509,485.298,321.708,485.298z"/>
		<path fill="#257C90" d="M335.806,501.561v-19.289h3.068v19.289H335.806z M339.093,477.976h-2.455l3.508-6.271h3.771
			L339.093,477.976z"/>
		<path fill="#257C90" d="M368.861,501.561v-3.294c-0.174,0.226-0.355,0.446-0.551,0.663c-1.82,2.046-4.063,3.068-6.729,3.068
			c-2.664,0-4.906-1.022-6.729-3.068c-1.77-1.984-2.652-4.323-2.652-7.015c0-2.69,0.885-5.028,2.652-7.014
			c1.822-2.046,4.064-3.069,6.729-3.069s4.908,1.023,6.729,3.069c0.193,0.217,0.377,0.438,0.551,0.663v-3.294h3.066v19.289
			L368.861,501.561L368.861,501.561z M366.91,487.007c-1.309-1.402-2.922-2.104-4.846-2.104c-1.922,0-3.535,0.701-4.844,2.104
			c-1.301,1.396-1.951,3.031-1.951,4.909c0,1.879,0.65,3.516,1.951,4.91c1.309,1.402,2.922,2.104,4.844,2.104
			c1.924,0,3.537-0.702,4.846-2.104c1.301-1.396,1.951-3.031,1.951-4.91C368.861,490.038,368.21,488.402,366.91,487.007z"/>
	</g>
</g>
<path fill="#EC6798" d="M500.412,382.769c0,0,26.75-8.022,19.607-26.269c-4.35-11.115-19.375-7.22-20.006,4.777
	C499.509,370.915,504.412,376.131,500.412,382.769z"/>
<path fill="#EC6798" d="M497.589,395.801c0,0,24.514-25.63,42.006-7.157c12.484,13.188-1.09,30.692-17.17,20.222
	C514.587,403.762,509.326,396.389,497.589,395.801z"/>
</svg>
