<?xml version="1.0" encoding="utf-8"?>
<!-- Generator: Adobe Illustrator 16.0.0, SVG Export Plug-In . SVG Version: 6.00 Build 0)  -->
<!DOCTYPE svg PUBLIC "-//W3C//DTD SVG 1.1//EN" "http://www.w3.org/Graphics/SVG/1.1/DTD/svg11.dtd">
<svg version="1.1" id="Capa_1" xmlns="http://www.w3.org/2000/svg" xmlns:xlink="http://www.w3.org/1999/xlink" x="0px" y="0px"
	 width="595.281px" height="85.624px" viewBox="0 506.803 595.281 85.624" enable-background="new 0 506.803 595.281 85.624"
	 xml:space="preserve">
<path fill="#FF6699" d="M0,586.174c0,0,64.14,28.271,108.308-46.3c24.332,9.095,94.332,36.57,162.462-17.651
	c50.87,73.723,147.87,22.723,162.048,2.231c55.321,96.99,162.463,61.72,162.463,61.72v-79.371h-9.013c-9.012,0-26.952,0-45.143,0
	c-17.982,0-35.965,0-54.154,0c-17.981,0-35.965,0-54.153,0c-17.941,0-35.966,0-54.154,0c-17.898,0-35.965,0-54.152,0
	c-17.858,0-35.966,0-53.741,0c-18.23,0-36.378,0-54.154,0c-18.189,0-36.378,0-54.154,0c-18.148,0-36.378,0-54.154,0
	c-18.106,0-35.965,0-54.154,0c-18.065,0-35.965,0-45.059,0H0V586.174z"/>
</svg>
