<?xml version="1.0" encoding="utf-8"?>
<!-- Generator: Adobe Illustrator 16.0.0, SVG Export Plug-In . SVG Version: 6.00 Build 0)  -->
<!DOCTYPE svg PUBLIC "-//W3C//DTD SVG 1.1//EN" "http://www.w3.org/Graphics/SVG/1.1/DTD/svg11.dtd">
<svg version="1.1" id="Capa_1" xmlns="http://www.w3.org/2000/svg" xmlns:xlink="http://www.w3.org/1999/xlink" x="0px" y="0px"
	 width="595.281px" height="85.624px" viewBox="0 506.803 595.281 85.624" enable-background="new 0 506.803 595.281 85.624"
	 xml:space="preserve">
<path fill="#FF6699" d="M595.281,513.056c0,0-64.141-28.271-108.309,46.3c-24.332-9.095-94.332-36.57-162.462,17.651
	c-50.869-73.723-147.869-22.723-162.048-2.231C107.142,477.785,0,513.056,0,513.056v79.371h9.013c9.012,0,26.952,0,45.143,0
	c17.982,0,35.965,0,54.154,0c17.981,0,35.965,0,54.153,0c17.941,0,35.966,0,54.154,0c17.898,0,35.965,0,54.152,0
	c17.858,0,35.966,0,53.74,0c18.23,0,36.378,0,54.154,0c18.188,0,36.378,0,54.154,0c18.147,0,36.378,0,54.153,0
	c18.106,0,35.966,0,54.155,0c18.064,0,35.965,0,45.059,0h9.096V513.056z"/>
</svg>
